<svg width="100" height="100" viewBox="0 0 100 100" fill="none" xmlns="http://www.w3.org/2000/svg">
<path fill-rule="evenodd" clip-rule="evenodd" d="M50 0C22.3858 0 0 22.3858 0 50C0 77.6142 22.3858 100 50 100C77.6142 100 100 77.6142 100 50C99.9691 22.3986 77.6014 0.0308618 50 0ZM50 96.153C31.3324 96.153 14.5029 84.9078 7.35917 67.6611C0.215465 50.4145 4.16439 30.5627 17.3645 17.3628C30.5647 4.16297 50.4165 0.214474 67.6631 7.35855C84.9096 14.5026 96.1544 31.3324 96.154 50C96.1237 75.4773 75.4773 96.1228 50 96.152V96.153ZM73.265 31.895L44.111 65.695L26.548 51.216C26.1585 50.8927 25.6542 50.7419 25.1511 50.7985C24.6481 50.8551 24.1899 51.1142 23.882 51.516C23.231 52.3648 23.3632 53.5756 24.182 54.264L43.152 69.903C43.9354 70.5507 45.0939 70.4487 45.752 69.674L76.1 34.49C76.7958 33.6772 76.7261 32.46 75.942 31.732C75.5703 31.3882 75.0743 31.2111 74.5689 31.2417C74.0635 31.2723 73.5925 31.5079 73.265 31.894V31.895Z" fill="#134CDF"/>
</svg>
