<svg width="64" height="51" viewBox="0 0 64 51" fill="none" xmlns="http://www.w3.org/2000/svg">
<path fill-rule="evenodd" clip-rule="evenodd" d="M62.7524 0H1.10105C0.808519 0.00044552 0.528148 0.117185 0.321648 0.324525C0.115149 0.531865 -0.000554663 0.812812 2.88765e-06 1.10553V49.757C-0.000666272 50.0498 0.114988 50.3308 0.3215 50.5383C0.528011 50.7457 0.808446 50.8625 1.10105 50.8629H62.7524C63.045 50.8625 63.3254 50.7457 63.532 50.5383C63.7385 50.3308 63.8541 50.0498 63.8534 49.757V1.10553C63.854 0.812812 63.7383 0.531865 63.5318 0.324525C63.3253 0.117185 63.0449 0.00044552 62.7524 0ZM61.6518 48.6514H2.20169V2.21149H61.6518V48.6514ZM17.6147 24.4781C20.1058 24.4873 22.3567 22.9928 23.3163 20.6926C24.276 18.3923 23.7551 15.74 21.9969 13.9742C20.2387 12.2084 17.59 11.6774 15.2877 12.6291C12.9854 13.5809 11.4836 15.8277 11.4835 18.3203C11.4807 21.7135 14.2237 24.4684 17.6147 24.4781ZM17.6147 14.374C19.2111 14.3681 20.6535 15.3256 21.2687 16.7996C21.8838 18.2736 21.5503 19.9733 20.4238 21.1051C19.2973 22.2369 17.6 22.5775 16.1245 21.968C14.649 21.3584 13.6862 19.9189 13.6856 18.3216C13.6849 16.1477 15.4422 14.3831 17.6147 14.3761V14.374ZM7.70653 44.2285C7.97412 44.2286 8.23249 44.1306 8.43286 43.9531L26.3925 28.073L37.7349 39.4646C38.014 39.7429 38.4202 39.851 38.8006 39.7483C39.181 39.6456 39.4777 39.3477 39.579 38.9667C39.6803 38.5857 39.5708 38.1796 39.2917 37.9013L33.9986 32.5859L44.1063 21.4692L56.5019 32.8818C56.952 33.2929 57.6499 33.261 58.0606 32.8106C58.4714 32.3602 58.4395 31.6619 57.9894 31.2509L44.7814 19.0879C44.5645 18.8927 44.2807 18.789 43.9891 18.7983C43.6969 18.8115 43.4219 18.9407 43.225 19.1573L32.4426 31.0184L27.2209 25.7741C26.8108 25.3617 26.1506 25.3405 25.7149 25.7257L6.97893 42.2923C6.5219 42.6968 6.47759 43.3948 6.87979 43.8539C7.08838 44.0924 7.38982 44.229 7.70653 44.2285Z" fill="#134CDF"/>
</svg>
